<svg width="16" height="16" viewBox="0 0 16 16" fill="none" xmlns="http://www.w3.org/2000/svg">
<path d="M2 4.66671C2 4.31309 2.14048 3.97395 2.39052 3.7239C2.64057 3.47385 2.97971 3.33337 3.33333 3.33337H12.6667C13.0203 3.33337 13.3594 3.47385 13.6095 3.7239C13.8595 3.97395 14 4.31309 14 4.66671V11.3334C14 11.687 13.8595 12.0261 13.6095 12.2762C13.3594 12.5262 13.0203 12.6667 12.6667 12.6667H3.33333C2.97971 12.6667 2.64057 12.5262 2.39052 12.2762C2.14048 12.0261 2 11.687 2 11.3334V4.66671Z" stroke="#3D3F43" stroke-width="1.33333" stroke-linecap="round" stroke-linejoin="round"/>
<path d="M4.66602 10V6L5.99935 7.33333L7.33268 6V10" stroke="#3D3F43" stroke-width="1.33333" stroke-linecap="round" stroke-linejoin="round"/>
<path d="M9.33398 8.66667L10.6673 10M10.6673 10L12.0007 8.66667M10.6673 10V6" stroke="#3D3F43" stroke-width="1.33333" stroke-linecap="round" stroke-linejoin="round"/>
</svg>
